Gait_medial_07_analogdata.mot
version=1
nRows=54
nColumns=19
inDegrees=yes
endheader
time	1_ground_force_vx	1_ground_force_vy	1_ground_force_vz	1_ground_force_px	1_ground_force_py	1_ground_force_pz	1_ground_torque_x	1_ground_torque_y	1_ground_torque_z	2_ground_force_vx	2_ground_force_vy	2_ground_force_vz	2_ground_force_px	2_ground_force_py	2_ground_force_pz	2_ground_torque_x	2_ground_torque_y	2_ground_torque_z
0.697000	-15.650071	653.138123	69.947042	-0.168746	0.000000	-0.193149	0.074719	-3.118327	-0.333953	0.000000	0.000000	-0.000000	-0.200000	0.000000	0.302000	0.000000	0.000000	-0.000000
0.698000	-15.204643	651.388550	71.716428	-0.169047	0.000000	-0.191739	0.071741	-3.073484	-0.338384	0.000000	0.000000	-0.000000	-0.200000	0.000000	0.302000	0.000000	0.000000	-0.000000
0.699000	-15.560986	656.287415	70.477857	-0.169313	0.000000	-0.191908	0.077803	-3.281371	-0.352382	0.000000	0.000000	-0.000000	-0.200000	0.000000	0.302000	0.000000	0.000000	-0.000000
0.700000	-16.184587	656.987305	71.185613	-0.169192	0.000000	-0.192175	0.069792	-2.833086	-0.306969	0.000000	0.000000	-0.000000	-0.200000	0.000000	0.302000	0.000000	0.000000	-0.000000
0.701000	-16.630016	655.587585	71.893361	-0.170069	0.000000	-0.192139	0.080207	-3.161913	-0.346743	0.000000	0.000000	-0.000000	-0.200000	0.000000	0.302000	0.000000	0.000000	-0.000000
0.702000	-16.273672	648.239197	72.689588	-0.169009	0.000000	-0.191985	0.075872	-3.022241	-0.338896	0.000000	0.000000	-0.000000	-0.200000	0.000000	0.302000	0.000000	0.000000	-0.000000
0.703000	-15.471901	646.839539	74.193563	-0.169107	0.000000	-0.191120	0.071312	-2.981379	-0.341969	0.000000	0.000000	-0.000000	-0.200000	0.000000	0.302000	0.000000	0.000000	-0.000000
0.704000	-15.115557	652.788208	73.485807	-0.169403	0.000000	-0.191543	0.075850	-3.275684	-0.368751	0.000000	0.000000	-0.000000	-0.200000	0.000000	0.302000	0.000000	0.000000	-0.000000
0.705000	-16.630016	653.837952	73.574277	-0.169368	0.000000	-0.191794	0.071033	-2.792786	-0.314263	0.000000	0.000000	-0.000000	-0.200000	0.000000	0.302000	0.000000	0.000000	-0.000000
0.706000	-16.897274	651.038574	74.547445	-0.169970	0.000000	-0.191811	0.078920	-3.040708	-0.348177	0.000000	0.000000	-0.000000	-0.200000	0.000000	0.302000	0.000000	0.000000	-0.000000
0.707000	-15.917330	643.690247	75.078260	-0.169122	0.000000	-0.190656	0.073080	-2.955318	-0.344700	0.000000	0.000000	-0.000000	-0.200000	0.000000	0.302000	0.000000	0.000000	-0.000000
0.708000	-15.828244	639.141235	76.936109	-0.168955	0.000000	-0.189952	0.071416	-2.883749	-0.347129	0.000000	0.000000	-0.000000	-0.200000	0.000000	0.302000	0.000000	0.000000	-0.000000
0.709000	-15.204643	646.839539	76.139890	-0.169279	0.000000	-0.190759	0.075238	-3.200793	-0.376767	0.000000	0.000000	-0.000000	-0.200000	0.000000	0.302000	0.000000	0.000000	-0.000000
0.710000	-16.719103	647.889282	76.316823	-0.169116	0.000000	-0.191011	0.072675	-2.816244	-0.331734	0.000000	0.000000	-0.000000	-0.200000	0.000000	0.302000	0.000000	0.000000	-0.000000
0.711000	-16.451846	644.040161	77.289991	-0.169513	0.000000	-0.190995	0.076510	-2.995134	-0.359440	0.000000	0.000000	-0.000000	-0.200000	0.000000	0.302000	0.000000	0.000000	-0.000000
0.712000	-16.273673	639.841064	78.174680	-0.168932	0.000000	-0.189569	0.072340	-2.844225	-0.347503	0.000000	0.000000	-0.000000	-0.200000	0.000000	0.302000	0.000000	0.000000	-0.000000
0.713000	-15.917330	629.693298	79.590185	-0.168869	0.000000	-0.188882	0.072793	-2.879717	-0.363982	0.000000	0.000000	-0.000000	-0.200000	0.000000	0.302000	0.000000	0.000000	-0.000000
0.714000	-14.402872	639.841064	79.059370	-0.169550	0.000000	-0.190360	0.071095	-3.158345	-0.390248	0.000000	0.000000	-0.000000	-0.200000	0.000000	0.302000	0.000000	0.000000	-0.000000
0.715000	-17.164532	640.190979	79.236310	-0.168724	0.000000	-0.190486	0.074721	-2.786886	-0.344932	0.000000	0.000000	-0.000000	-0.200000	0.000000	0.302000	0.000000	0.000000	-0.000000
0.716000	-16.808188	639.141235	80.474881	-0.169789	0.000000	-0.190807	0.075693	-2.878268	-0.362406	0.000000	0.000000	-0.000000	-0.200000	0.000000	0.302000	0.000000	0.000000	-0.000000
0.717000	-16.986360	635.642029	81.359571	-0.169113	0.000000	-0.189413	0.074579	-2.790802	-0.357211	-3.214508	0.000000	-4.069944	-0.289087	0.000000	0.182854	0.099897	-0.400383	0.126481
0.718000	-16.540931	624.794434	82.775083	-0.168699	0.000000	-0.188675	0.070821	-2.675079	-0.354404	-4.906494	0.000000	-5.752252	-0.285463	0.000000	0.236504	0.052603	-0.190876	0.061671
0.719000	-15.026473	636.691772	81.978857	-0.169454	0.000000	-0.190105	0.071874	-3.045391	-0.392117	-4.283131	0.000000	-3.715775	-0.333266	0.000000	0.198440	0.122524	-0.328340	0.106294
0.720000	-17.253617	633.892395	82.421201	-0.168696	0.000000	-0.189690	0.072950	-2.680151	-0.348484	-2.413041	0.000000	-2.299094	-0.280719	0.000000	0.204085	0.071123	-0.317590	0.067765
0.721000	-17.253618	631.442932	82.775083	-0.169423	0.000000	-0.189985	0.075224	-2.753026	-0.360891	-2.591145	0.000000	-0.970957	-0.261412	0.000000	0.163594	0.157926	-0.528210	0.059178
0.722000	-16.897275	630.043274	83.748243	-0.169196	0.000000	-0.188582	0.070938	-2.645028	-0.351589	-1.077262	0.000000	-2.830349	-0.281575	0.000000	0.138493	0.031476	-0.212153	0.082699
0.723000	-16.184589	617.096130	85.340688	-0.168896	0.000000	-0.187886	0.067731	-2.582477	-0.357141	-1.700625	0.000000	-2.476179	-0.282070	0.000000	0.214312	0.057900	-0.307026	0.084304
0.724000	-14.848301	626.544006	84.809873	-0.169473	0.000000	-0.189207	0.069866	-2.948108	-0.399060	-1.789677	0.000000	-3.538689	-0.286876	0.000000	0.201205	0.037162	-0.252930	0.073480
0.725000	-17.342704	627.943726	84.544461	-0.168680	0.000000	-0.189595	0.072862	-2.638195	-0.355199	-1.700625	0.000000	-1.856382	-0.289930	0.000000	0.227181	0.018087	-0.170658	0.019743
0.726000	-17.075447	625.844177	84.986814	-0.169600	0.000000	-0.189735	0.074606	-2.734449	-0.371326	-2.591145	0.000000	-0.351159	-0.274151	0.000000	0.226930	0.007888	-0.058481	0.001069
0.727000	-16.897276	619.545593	85.694562	-0.168906	0.000000	-0.187511	0.069842	-2.560780	-0.354203	-2.591145	0.000000	0.711351	-0.290408	0.000000	0.210035	0.039412	-0.286834	-0.010820
0.728000	-16.630018	609.397827	87.640889	-0.168880	0.000000	-0.187301	0.065835	-2.412473	-0.346951	-2.145885	20.263592	1.419691	-0.293180	0.000000	0.217520	0.015571	-0.147039	-0.010302
0.729000	-15.739161	617.795959	87.640890	-0.169072	0.000000	-0.188235	0.068155	-2.675225	-0.379509	-2.323989	23.426428	1.862404	-0.291342	0.000000	0.225085	0.018088	-0.182334	-0.014496
0.730000	-17.877220	618.145874	87.287007	-0.168711	0.000000	-0.188661	0.073324	-2.535340	-0.358010	-1.878730	30.103529	1.950947	-0.283357	0.000000	0.234196	0.010058	-0.161169	-0.010445
0.731000	-17.788134	616.396240	87.729352	-0.169686	0.000000	-0.189016	0.073008	-2.529871	-0.360067	-3.659768	35.726349	2.128031	-0.276491	0.000000	0.241007	0.010899	-0.106395	-0.006337
0.732000	-17.342705	614.646667	88.702520	-0.168895	0.000000	-0.187661	0.069303	-2.456170	-0.354461	-4.728391	38.537762	3.279084	-0.277228	0.000000	0.233874	0.027040	-0.220383	-0.018752
0.733000	-16.630019	604.498901	90.294965	-0.168673	0.000000	-0.187223	0.065601	-2.384605	-0.356192	-5.440807	42.754875	4.784306	-0.273867	0.000000	0.252379	0.022165	-0.174177	-0.019491
0.734000	-15.650074	609.047913	90.560369	-0.169343	0.000000	-0.187688	0.066128	-2.573482	-0.382655	-5.975119	46.620564	5.581189	-0.282393	0.000000	0.244823	0.033075	-0.258065	-0.030894
0.735000	-18.233563	609.747742	90.294965	-0.168648	0.000000	-0.188034	0.071302	-2.384402	-0.353096	-5.975119	51.540535	5.669731	-0.283932	0.000000	0.245589	0.022505	-0.194128	-0.021355
0.736000	-17.788134	606.248535	90.294965	-0.169493	0.000000	-0.188224	0.069379	-2.364549	-0.352177	-7.756156	60.326191	5.935359	-0.278392	0.000000	0.248501	0.026343	-0.204893	-0.020159
0.737000	-17.699048	603.449158	91.268125	-0.168468	0.000000	-0.187027	0.065408	-2.230072	-0.337285	-9.180987	65.597588	6.997869	-0.281512	0.000000	0.250051	0.030968	-0.221262	-0.023604
0.738000	-17.699048	594.701050	92.683629	-0.168459	0.000000	-0.186761	0.061542	-2.067870	-0.322276	-8.557624	70.517555	7.883294	-0.282977	0.000000	0.251745	0.033608	-0.276944	-0.030960
0.739000	-16.184590	598.550232	92.329755	-0.169298	0.000000	-0.187174	0.066663	-2.465386	-0.380300	-9.270040	77.897507	8.503091	-0.283308	0.000000	0.250929	0.015420	-0.129573	-0.014144
0.740000	-18.055392	600.649780	91.975881	-0.168558	0.000000	-0.187797	0.066945	-2.227050	-0.341022	-9.180988	87.034592	10.096857	-0.281899	0.000000	0.252211	0.030415	-0.288332	-0.033449
0.741000	-17.788134	597.850342	92.683629	-0.169378	0.000000	-0.188193	0.066739	-2.243077	-0.347740	-11.496338	95.117393	10.096856	-0.282250	0.000000	0.256026	0.037077	-0.306761	-0.032563
0.742000	-18.144477	594.701050	93.214444	-0.168701	0.000000	-0.186295	0.063181	-2.070823	-0.324584	-11.763493	101.794495	10.273941	-0.282225	0.000000	0.254063	0.039015	-0.337609	-0.034074
0.743000	-17.342706	585.253174	94.718427	-0.168560	0.000000	-0.186190	0.060560	-2.043675	-0.330752	-11.941597	109.877296	10.451026	-0.282201	0.000000	0.256283	0.034246	-0.315101	-0.029971
0.744000	-16.451848	588.402466	95.249242	-0.169006	0.000000	-0.186877	0.060491	-2.163460	-0.350216	-12.564960	119.365807	10.628111	-0.281241	0.000000	0.254816	0.026664	-0.253305	-0.022554
0.745000	-18.144477	587.702637	94.364545	-0.168336	0.000000	-0.186897	0.061520	-1.992630	-0.319947	-11.140130	127.800041	11.247909	-0.281788	0.000000	0.256183	0.034603	-0.396964	-0.034938
0.746000	-17.966306	585.603088	94.276082	-0.169210	0.000000	-0.187195	0.062237	-2.028595	-0.326583	-13.277376	133.422867	9.831228	-0.282709	0.000000	0.256149	0.049916	-0.501597	-0.036960
0.747000	-17.609964	581.054077	95.337712	-0.168433	0.000000	-0.185847	0.057047	-1.882297	-0.308842	-13.010220	141.857086	9.122888	-0.284037	0.000000	0.256524	0.040170	-0.437995	-0.028168
0.748000	-17.164535	575.105408	96.841687	-0.168534	0.000000	-0.186195	0.050059	-1.677245	-0.282430	-12.564960	152.399887	9.122889	-0.282240	0.000000	0.261261	0.051488	-0.624495	-0.037383
0.749000	-15.828248	576.505066	97.991788	-0.168733	0.000000	-0.186468	0.051936	-1.891640	-0.321533	-12.386856	161.536972	8.414548	-0.283965	0.000000	0.260090	0.045089	-0.588009	-0.030630
0.750000	-17.253620	577.904785	96.487813	-0.168404	0.000000	-0.187216	0.053601	-1.795346	-0.299754	-12.119701	174.891159	8.326006	-0.282348	0.000000	0.261455	0.047825	-0.690131	-0.032855
